<mxfile host="app.diagrams.net" modified="2024-02-04T01:29:30.630Z" agent="Mozilla/5.0 (Windows NT 10.0; Win64; x64; rv:122.0) Gecko/20100101 Firefox/122.0" etag="VLOFdTKyw-XeFPLxvWyh" version="23.1.1" type="github">
  <diagram name="Page-1" id="vnZBII_xaNk5Z19Bac87">
    <mxGraphModel dx="1434" dy="746" grid="1" gridSize="10" guides="1" tooltips="1" connect="1" arrows="1" fold="1" page="1" pageScale="1" pageWidth="827" pageHeight="1169" math="0" shadow="0">
      <root>
        <mxCell id="0" />
        <mxCell id="1" parent="0" />
        <mxCell id="UgtbDvsUYmOSilJM2y3G-1" value="&lt;font style=&quot;font-size: 18px;&quot;&gt;App&lt;/font&gt;" style="text;strokeColor=none;align=center;fillColor=none;html=1;verticalAlign=middle;whiteSpace=wrap;rounded=0;" parent="1" vertex="1">
          <mxGeometry x="359" y="40" width="110" height="30" as="geometry" />
        </mxCell>
        <mxCell id="UgtbDvsUYmOSilJM2y3G-3" value="" style="rounded=0;whiteSpace=wrap;html=1;" parent="1" vertex="1">
          <mxGeometry x="40" y="80" width="760" height="40" as="geometry" />
        </mxCell>
        <mxCell id="UgtbDvsUYmOSilJM2y3G-2" value="&lt;font style=&quot;font-size: 20px;&quot;&gt;Header&lt;/font&gt;" style="text;strokeColor=none;align=center;fillColor=none;html=1;verticalAlign=middle;whiteSpace=wrap;rounded=0;" parent="1" vertex="1">
          <mxGeometry x="371" y="85" width="86" height="30" as="geometry" />
        </mxCell>
        <mxCell id="UgtbDvsUYmOSilJM2y3G-6" value="" style="rounded=0;whiteSpace=wrap;html=1;" parent="1" vertex="1">
          <mxGeometry x="40" y="140" width="760" height="620" as="geometry" />
        </mxCell>
        <mxCell id="UgtbDvsUYmOSilJM2y3G-7" value="&lt;font size=&quot;1&quot;&gt;&lt;span style=&quot;font-size: 20px;&quot;&gt;Tea Control&lt;/span&gt;&lt;/font&gt;" style="text;strokeColor=none;align=center;fillColor=none;html=1;verticalAlign=middle;whiteSpace=wrap;rounded=0;" parent="1" vertex="1">
          <mxGeometry x="343.5" y="150" width="141" height="30" as="geometry" />
        </mxCell>
        <mxCell id="UgtbDvsUYmOSilJM2y3G-8" value="&lt;div&gt;This is a class components which determines which functional component is being display.&lt;/div&gt;&lt;div&gt;It is in charge of holding and manipulating state when needed&lt;br&gt;&lt;/div&gt;" style="text;strokeColor=none;align=center;fillColor=none;html=1;verticalAlign=middle;whiteSpace=wrap;rounded=0;" parent="1" vertex="1">
          <mxGeometry x="74" y="180" width="680" height="30" as="geometry" />
        </mxCell>
        <mxCell id="UgtbDvsUYmOSilJM2y3G-9" value="" style="rounded=0;whiteSpace=wrap;html=1;" parent="1" vertex="1">
          <mxGeometry x="74" y="240" width="186" height="310" as="geometry" />
        </mxCell>
        <mxCell id="UgtbDvsUYmOSilJM2y3G-10" value="" style="rounded=0;whiteSpace=wrap;html=1;" parent="1" vertex="1">
          <mxGeometry x="320.5" y="240" width="186" height="310" as="geometry" />
        </mxCell>
        <mxCell id="UgtbDvsUYmOSilJM2y3G-11" value="" style="rounded=0;whiteSpace=wrap;html=1;" parent="1" vertex="1">
          <mxGeometry x="560" y="240" width="186" height="310" as="geometry" />
        </mxCell>
        <mxCell id="UgtbDvsUYmOSilJM2y3G-12" value="" style="rounded=0;whiteSpace=wrap;html=1;" parent="1" vertex="1">
          <mxGeometry x="74" y="590" width="186" height="100" as="geometry" />
        </mxCell>
        <mxCell id="UgtbDvsUYmOSilJM2y3G-13" value="" style="rounded=0;whiteSpace=wrap;html=1;" parent="1" vertex="1">
          <mxGeometry x="330" y="470" width="170" height="70" as="geometry" />
        </mxCell>
        <mxCell id="UgtbDvsUYmOSilJM2y3G-15" value="&lt;b&gt;&lt;font style=&quot;font-size: 14px;&quot;&gt;Tea List&lt;/font&gt;&lt;/b&gt;" style="text;strokeColor=none;align=center;fillColor=none;html=1;verticalAlign=middle;whiteSpace=wrap;rounded=0;" parent="1" vertex="1">
          <mxGeometry x="125.5" y="250" width="83" height="30" as="geometry" />
        </mxCell>
        <mxCell id="UgtbDvsUYmOSilJM2y3G-16" value="TeaList displays all current list of available tea" style="text;strokeColor=none;align=center;fillColor=none;html=1;verticalAlign=middle;whiteSpace=wrap;rounded=0;" parent="1" vertex="1">
          <mxGeometry x="87" y="280" width="160" height="30" as="geometry" />
        </mxCell>
        <mxCell id="UgtbDvsUYmOSilJM2y3G-19" value="" style="rounded=0;whiteSpace=wrap;html=1;" parent="1" vertex="1">
          <mxGeometry x="87" y="330" width="161.5" height="60" as="geometry" />
        </mxCell>
        <mxCell id="UgtbDvsUYmOSilJM2y3G-25" value="Tea" style="text;strokeColor=none;align=center;fillColor=none;html=1;verticalAlign=middle;whiteSpace=wrap;rounded=0;" parent="1" vertex="1">
          <mxGeometry x="136.25" y="330" width="60" height="30" as="geometry" />
        </mxCell>
        <mxCell id="UgtbDvsUYmOSilJM2y3G-26" value="Clicking on the tea name will show all details" style="text;strokeColor=none;align=center;fillColor=none;html=1;verticalAlign=middle;whiteSpace=wrap;rounded=0;" parent="1" vertex="1">
          <mxGeometry x="92.5" y="360" width="156" height="20" as="geometry" />
        </mxCell>
        <mxCell id="UgtbDvsUYmOSilJM2y3G-27" value="" style="rounded=0;whiteSpace=wrap;html=1;" parent="1" vertex="1">
          <mxGeometry x="87" y="400" width="161.5" height="60" as="geometry" />
        </mxCell>
        <mxCell id="UgtbDvsUYmOSilJM2y3G-28" value="" style="rounded=0;whiteSpace=wrap;html=1;" parent="1" vertex="1">
          <mxGeometry x="87" y="470" width="161.5" height="60" as="geometry" />
        </mxCell>
        <mxCell id="UgtbDvsUYmOSilJM2y3G-29" value="Tea" style="text;strokeColor=none;align=center;fillColor=none;html=1;verticalAlign=middle;whiteSpace=wrap;rounded=0;" parent="1" vertex="1">
          <mxGeometry x="136.25" y="485" width="60" height="30" as="geometry" />
        </mxCell>
        <mxCell id="UgtbDvsUYmOSilJM2y3G-30" value="Tea" style="text;strokeColor=none;align=center;fillColor=none;html=1;verticalAlign=middle;whiteSpace=wrap;rounded=0;" parent="1" vertex="1">
          <mxGeometry x="137.75" y="415" width="60" height="30" as="geometry" />
        </mxCell>
        <mxCell id="UgtbDvsUYmOSilJM2y3G-31" value="&lt;b&gt;Add Tea&lt;/b&gt;" style="text;strokeColor=none;align=center;fillColor=none;html=1;verticalAlign=middle;whiteSpace=wrap;rounded=0;" parent="1" vertex="1">
          <mxGeometry x="136.25" y="590" width="60" height="30" as="geometry" />
        </mxCell>
        <mxCell id="UgtbDvsUYmOSilJM2y3G-32" value="This btn resides in TeaControl, clicking it will display NewTeaForm" style="text;strokeColor=none;align=center;fillColor=none;html=1;verticalAlign=middle;whiteSpace=wrap;rounded=0;" parent="1" vertex="1">
          <mxGeometry x="93.25" y="620" width="147.5" height="50" as="geometry" />
        </mxCell>
        <mxCell id="UgtbDvsUYmOSilJM2y3G-33" value="&lt;b&gt;&lt;font style=&quot;font-size: 15px;&quot;&gt;Form&lt;/font&gt;&lt;/b&gt;" style="text;strokeColor=none;align=center;fillColor=none;html=1;verticalAlign=middle;whiteSpace=wrap;rounded=0;" parent="1" vertex="1">
          <mxGeometry x="380" y="370" width="60" height="30" as="geometry" />
        </mxCell>
        <mxCell id="UgtbDvsUYmOSilJM2y3G-34" value="&lt;b&gt;Add new Tea &lt;/b&gt;" style="text;strokeColor=none;align=center;fillColor=none;html=1;verticalAlign=middle;whiteSpace=wrap;rounded=0;" parent="1" vertex="1">
          <mxGeometry x="376" y="470" width="76" height="30" as="geometry" />
        </mxCell>
        <mxCell id="UgtbDvsUYmOSilJM2y3G-35" value="Clicking this btn adds tea to the teas list in Tea Control" style="text;strokeColor=none;align=center;fillColor=none;html=1;verticalAlign=middle;whiteSpace=wrap;rounded=0;" parent="1" vertex="1">
          <mxGeometry x="350" y="500" width="130" height="30" as="geometry" />
        </mxCell>
        <mxCell id="UgtbDvsUYmOSilJM2y3G-36" value="Tea Details" style="text;strokeColor=none;align=center;fillColor=none;html=1;verticalAlign=middle;whiteSpace=wrap;rounded=0;" parent="1" vertex="1">
          <mxGeometry x="600" y="250" width="90" height="30" as="geometry" />
        </mxCell>
        <mxCell id="UgtbDvsUYmOSilJM2y3G-37" value="" style="rounded=0;whiteSpace=wrap;html=1;" parent="1" vertex="1">
          <mxGeometry x="589.5" y="420" width="127" height="30" as="geometry" />
        </mxCell>
        <mxCell id="UgtbDvsUYmOSilJM2y3G-38" value="&lt;b&gt;Delete button&lt;/b&gt;" style="text;strokeColor=none;align=center;fillColor=none;html=1;verticalAlign=middle;whiteSpace=wrap;rounded=0;" parent="1" vertex="1">
          <mxGeometry x="597.75" y="420" width="94.5" height="30" as="geometry" />
        </mxCell>
        <mxCell id="UgtbDvsUYmOSilJM2y3G-39" value="" style="rounded=0;whiteSpace=wrap;html=1;" parent="1" vertex="1">
          <mxGeometry x="589.5" y="465" width="127" height="75" as="geometry" />
        </mxCell>
        <mxCell id="UgtbDvsUYmOSilJM2y3G-40" value="&lt;b&gt;Sell button&lt;/b&gt;" style="text;strokeColor=none;align=center;fillColor=none;html=1;verticalAlign=middle;whiteSpace=wrap;rounded=0;" parent="1" vertex="1">
          <mxGeometry x="604.5" y="470" width="97" height="20" as="geometry" />
        </mxCell>
        <mxCell id="UgtbDvsUYmOSilJM2y3G-41" value="decrease the number of tea" style="text;strokeColor=none;align=center;fillColor=none;html=1;verticalAlign=middle;whiteSpace=wrap;rounded=0;" parent="1" vertex="1">
          <mxGeometry x="598" y="500" width="110" height="30" as="geometry" />
        </mxCell>
        <mxCell id="92_oEdT5eBJzrd0z8XLW-2" value="" style="ellipse;whiteSpace=wrap;html=1;" vertex="1" parent="1">
          <mxGeometry x="430" y="280" width="220.5" height="120" as="geometry" />
        </mxCell>
        <mxCell id="92_oEdT5eBJzrd0z8XLW-3" value="Reusable Form" style="text;strokeColor=none;align=center;fillColor=none;html=1;verticalAlign=middle;whiteSpace=wrap;rounded=0;" vertex="1" parent="1">
          <mxGeometry x="493.5" y="300" width="93.5" height="30" as="geometry" />
        </mxCell>
        <mxCell id="92_oEdT5eBJzrd0z8XLW-4" value="Editing Tea Form" style="text;strokeColor=none;align=center;fillColor=none;html=1;verticalAlign=middle;whiteSpace=wrap;rounded=0;" vertex="1" parent="1">
          <mxGeometry x="480" y="325" width="116.5" height="30" as="geometry" />
        </mxCell>
      </root>
    </mxGraphModel>
  </diagram>
</mxfile>
